<?xml version="1.0" encoding="utf-8"?>
<!-- Generator: Adobe Illustrator 25.4.1, SVG Export Plug-In . SVG Version: 6.00 Build 0)  -->
<svg version="1.1" id="Layer_1" xmlns="http://www.w3.org/2000/svg" xmlns:xlink="http://www.w3.org/1999/xlink" x="0px" y="0px"
	 viewBox="0 0 43.5 16" style="enable-background:new 0 0 43.5 16;" xml:space="preserve">
<style type="text/css">
	.st0{opacity:0.1;}
	.st1{fill:#92948F;}
	.st2{fill:#FFFFFF;}
</style>
<g>
	<g id="Layer_2_00000170240270379097616520000014175748731096701059_">
		<g id="Frames">
			<g class="st0">
				<g>
					<path class="st1" d="M42.8,0.7c-7.8-2.4-16.6,1.8-18.1,2.7c-1.6,1-2.9,0.9-2.9,0.9l0,0c0,0-1.4,0.1-3-0.9
						c-1.6-1-10.4-5.1-18.1-2.7C0.2,0.8-0.1,1.3,0,1.7C0.5,5.6,3.6,16,11.3,16c7.2,0,8.4-9.2,10.4-9.2S24.9,16,32.1,16
						C39.8,16,43,5.6,43.5,1.7C43.5,1.3,43.2,0.8,42.8,0.7z M14.8,2.6c-0.1-0.1-0.3-0.1-0.4-0.1C14.6,2.5,14.7,2.6,14.8,2.6z
						 M14.4,2.5c-0.1,0-0.3-0.1-0.4-0.1C14.1,2.4,14.3,2.4,14.4,2.5z"/>
				</g>
			</g>
			<path class="st2" d="M42.8,0.7c-7.8-2.4-16.6,1.8-18.1,2.7c-1.6,1-2.9,0.9-2.9,0.9l0,0c0,0-1.4,0.1-3-0.9
				c-1.6-1-10.4-5.1-18.1-2.7C0.2,0.8-0.1,1.3,0,1.7C0.5,5.6,3.6,16,11.3,16c7.2,0,8.4-9.2,10.4-9.2S24.9,16,32.1,16
				C39.8,16,43,5.6,43.5,1.7C43.5,1.3,43.2,0.8,42.8,0.7z M14.8,2.6c-0.1-0.1-0.3-0.1-0.4-0.1C14.6,2.5,14.7,2.6,14.8,2.6z
				 M14.4,2.5c-0.1,0-0.3-0.1-0.4-0.1C14.1,2.4,14.3,2.4,14.4,2.5z M19.2,7.1c-1.3,8.1-7.8,8.1-9.2,7.7c-7.2-2-7.1-11.3-5.7-12.5
				s5.7-0.5,6.8-0.5c0.4,0,1.6,0.2,2.9,0.6l0.8,0.3C17.1,3.4,19.5,4.9,19.2,7.1L19.2,7.1z M33.5,14.8c-1.4,0.4-7.9,0.3-9.2-7.7
				c-0.6-3.8,7-5.3,8.1-5.3c1.1,0,5.5-0.8,6.8,0.5C40.5,3.5,40.6,12.8,33.5,14.8L33.5,14.8z"/>
		</g>
	</g>
</g>
</svg>
