<svg xmlns="http://www.w3.org/2000/svg" viewBox="0 0 43.47 16"><defs><style>.cls-1{opacity:0.1;}.cls-2{fill:#717772;}.cls-3{fill:#748a7b;}</style></defs><g id="Layer_2" data-name="Layer 2"><g id="Layer_1-2" data-name="Layer 1"><g id="Layer_2-2" data-name="Layer 2"><g id="Frames"><g class="cls-1"><path class="cls-2" d="M42.82.71C35.06-1.64,26.23,2.49,24.68,3.45a5.69,5.69,0,0,1-2.95.92h0a5.71,5.71,0,0,1-2.95-.92C17.23,2.49,8.41-1.64.65.71a.93.93,0,0,0-.64,1C.47,5.57,3.63,16,11.35,16c7.22,0,8.35-9.23,10.38-9.23S24.9,16,32.12,16C39.83,16,43,5.57,43.46,1.72A.93.93,0,0,0,42.82.71Zm-28,1.92-.42-.15Zm-.43-.15L14,2.35Z"/></g><path class="cls-3" d="M42.82.71C35.06-1.64,26.23,2.49,24.68,3.45a5.69,5.69,0,0,1-2.95.92h0a5.71,5.71,0,0,1-2.95-.92C17.23,2.49,8.41-1.64.65.71a.93.93,0,0,0-.64,1C.47,5.57,3.63,16,11.35,16c7.22,0,8.35-9.23,10.38-9.23S24.9,16,32.12,16C39.83,16,43,5.57,43.46,1.72A.93.93,0,0,0,42.82.71Zm-28,1.92-.42-.15Zm-.43-.15L14,2.35Zm4.78,4.59c-1.27,8.06-7.81,8.09-9.17,7.71-7.2-2-7.09-11.27-5.74-12.53S10,1.76,11.1,1.76a13.86,13.86,0,0,1,2.9.59l.84.28c2.29.82,4.69,2.25,4.34,4.44Zm14.26,7.71c-1.37.37-7.9.34-9.17-7.71-.6-3.79,7-5.31,8.09-5.31s5.47-.77,6.82.49,1.46,10.53-5.74,12.53Z"/></g></g></g></g></svg>